{
  "accessors": [
    {
      "bufferView": 2,
      "componentType": 5126,
      "count": 128,
      "max": [
        2.6707215309143066,
        0.03397747874259949,
        0.17595887184143066
      ],
      "min": [
        -0.1848900318145752,
        -0.0323009192943573,
        -0.1759587526321411
      ],
      "type": "VEC3"
    },
    {
      "bufferView": 2,
      "byteOffset": 1536,
      "componentType": 5126,
      "count": 128,
      "max": [
        1.0,
        1.0,
        1.0
      ],
      "min": [
        -0.9999979734420776,
        -1.0,
        -1.0
      ],
      "type": "VEC3"
    },
    {
      "bufferView": 3,
      "componentType": 5126,
      "count": 128,
      "max": [
        1.0,
        1.0,
        1.0,
        1.0
      ],
      "min": [
        -1.0,
        -1.0,
        -1.0,
        1.0
      ],
      "type": "VEC4"
    },
    {
      "bufferView": 1,
      "componentType": 5126,
      "count": 128,
      "max": [
        0.9888959527015686,
        0.9973332285881042
      ],
      "min": [
        0.005677723325788975,
        0.003782575950026512
      ],
      "type": "VEC2"
    },
    {
      "bufferView": 1,
      "byteOffset": 1024,
      "componentType": 5126,
      "count": 128,
      "max": [
        0.9888959527015686,
        0.9973332285881042
      ],
      "min": [
        0.005677723325788975,
        0.003782575950026512
      ],
      "type": "VEC2"
    },
    {
      "bufferView": 1,
      "byteOffset": 2048,
      "componentType": 5126,
      "count": 128,
      "max": [
        0.9888959527015686,
        0.9973332285881042
      ],
      "min": [
        0.005677723325788975,
        0.003782575950026512
      ],
      "type": "VEC2"
    },
    {
      "bufferView": 0,
      "componentType": 5125,
      "count": 234,
      "type": "SCALAR"
    },
    {
      "bufferView": 2,
      "byteOffset": 3072,
      "componentType": 5126,
      "count": 64,
      "max": [
        0.22562378644943237,
        0.18077069520950317,
        0.3584265112876892
      ],
      "min": [
        -0.2256237268447876,
        -0.18077068030834198,
        -1.0487149953842163
      ],
      "type": "VEC3"
    },
    {
      "bufferView": 2,
      "byteOffset": 3840,
      "componentType": 5126,
      "count": 64,
      "max": [
        1.0,
        1.0,
        0.9472566843032837
      ],
      "min": [
        -1.0,
        -1.0,
        -1.0
      ],
      "type": "VEC3"
    },
    {
      "bufferView": 3,
      "byteOffset": 2048,
      "componentType": 5126,
      "count": 64,
      "max": [
        0.9999733567237854,
        1.0,
        0.9554363489151001,
        1.0
      ],
      "min": [
        -1.0,
        -1.0,
        -0.9554364085197449,
        1.0
      ],
      "type": "VEC4"
    },
    {
      "bufferView": 1,
      "byteOffset": 3072,
      "componentType": 5126,
      "count": 64,
      "max": [
        0.8221296668052673,
        0.9908689260482788
      ],
      "min": [
        0.0056690433993935585,
        0.012343883514404297
      ],
      "type": "VEC2"
    },
    {
      "bufferView": 1,
      "byteOffset": 3584,
      "componentType": 5126,
      "count": 64,
      "max": [
        0.8221296668052673,
        0.9908689260482788
      ],
      "min": [
        0.0056690433993935585,
        0.012343883514404297
      ],
      "type": "VEC2"
    },
    {
      "bufferView": 1,
      "byteOffset": 4096,
      "componentType": 5126,
      "count": 64,
      "max": [
        0.8221296668052673,
        0.9908689260482788
      ],
      "min": [
        0.0056690433993935585,
        0.012343883514404297
      ],
      "type": "VEC2"
    },
    {
      "bufferView": 0,
      "byteOffset": 936,
      "componentType": 5125,
      "count": 114,
      "type": "SCALAR"
    }
  ],
  "asset": {
    "extras": {
      "author": "TridentCorp (https://sketchfab.com/tridentcorp)",
      "license": "CC-BY-4.0 (http://creativecommons.org/licenses/by/4.0/)",
      "source": "https://sketchfab.com/3d-models/barrier-f61862267fdf489386aeadae20754229",
      "title": "Barrier"
    },
    "generator": "Sketchfab-13.32.0",
    "version": "2.0"
  },
  "bufferViews": [
    {
      "buffer": 0,
      "byteLength": 1392,
      "name": "floatBufferViews",
      "target": 34963
    },
    {
      "buffer": 0,
      "byteLength": 4608,
      "byteOffset": 1392,
      "byteStride": 8,
      "name": "floatBufferViews",
      "target": 34962
    },
    {
      "buffer": 0,
      "byteLength": 4608,
      "byteOffset": 6000,
      "byteStride": 12,
      "name": "floatBufferViews",
      "target": 34962
    },
    {
      "buffer": 0,
      "byteLength": 3072,
      "byteOffset": 10608,
      "byteStride": 16,
      "name": "floatBufferViews",
      "target": 34962
    }
  ],
  "buffers": [
    {
      "byteLength": 13680,
      "uri": "scene.bin"
    }
  ],
  "images": [
    {
      "uri": "textures/barrier3_baseColor.png"
    },
    {
      "uri": "textures/barrier3_metallicRoughness.png"
    },
    {
      "uri": "textures/barrier3_normal.png"
    }
  ],
  "materials": [
    {
      "doubleSided": true,
      "name": "barrier3",
      "normalTexture": {
        "index": 2
      },
      "occlusionTexture": {
        "index": 1
      },
      "pbrMetallicRoughness": {
        "baseColorTexture": {
          "index": 0
        },
        "metallicRoughnessTexture": {
          "index": 1
        }
      }
    }
  ],
  "meshes": [
    {
      "name": "barrier3.001_barrier3_0",
      "primitives": [
        {
          "attributes": {
            "NORMAL": 1,
            "POSITION": 0,
            "TANGENT": 2,
            "TEXCOORD_0": 3,
            "TEXCOORD_1": 4,
            "TEXCOORD_2": 5
          },
          "indices": 6,
          "material": 0,
          "mode": 4
        }
      ]
    },
    {
      "name": "barrier3_barrier3_0",
      "primitives": [
        {
          "attributes": {
            "NORMAL": 8,
            "POSITION": 7,
            "TANGENT": 9,
            "TEXCOORD_0": 10,
            "TEXCOORD_1": 11,
            "TEXCOORD_2": 12
          },
          "indices": 13,
          "material": 0,
          "mode": 4
        }
      ]
    }
  ],
  "nodes": [
    {
      "children": [
        1
      ],
      "matrix": [
        1.0,
        0.0,
        0.0,
        0.0,
        0.0,
        2.220446049250313e-16,
        -1.0,
        0.0,
        0.0,
        1.0,
        2.220446049250313e-16,
        0.0,
        0.0,
        0.0,
        0.0,
        1.0
      ],
      "name": "Sketchfab_model"
    },
    {
      "children": [
        2
      ],
      "matrix": [
        0.009999999776482582,
        0.0,
        0.0,
        0.0,
        0.0,
        0.0,
        0.009999999776482582,
        0.0,
        0.0,
        -0.009999999776482582,
        0.0,
        0.0,
        0.0,
        0.0,
        0.0,
        1.0
      ],
      "name": "fd049f5768ae4bd1805101d135939c07.fbx"
    },
    {
      "children": [
        3,
        5
      ],
      "name": "RootNode"
    },
    {
      "children": [
        4
      ],
      "matrix": [
        -99.99732292857549,
        -1.222980050563649e-14,
        0.7317151892599375,
        0.0,
        0.7317151892599355,
        7.549789959870878e-06,
        99.99732292857519,
        0.0,
        -5.5242972175906235e-08,
        99.99999999999972,
        -7.549587865973706e-06,
        0.0,
        -110.92105865478516,
        120.49144744873047,
        13.336265563964844,
        1.0
      ],
      "name": "barrier3.001"
    },
    {
      "mesh": 0,
      "name": "barrier3.001_barrier3_0"
    },
    {
      "children": [
        6
      ],
      "matrix": [
        -99.99732292857549,
        -1.222980050563649e-14,
        0.7317151892599375,
        0.0,
        0.7317151892599355,
        7.549789959870878e-06,
        99.99732292857519,
        0.0,
        -5.5242972175906235e-08,
        99.99999999999972,
        -7.549587865973706e-06,
        0.0,
        -110.76422882080078,
        104.26423645019531,
        34.76839065551758,
        1.0
      ],
      "name": "barrier3"
    },
    {
      "mesh": 1,
      "name": "barrier3_barrier3_0"
    }
  ],
  "samplers": [
    {
      "magFilter": 9729,
      "minFilter": 9987,
      "wrapS": 10497,
      "wrapT": 10497
    }
  ],
  "scene": 0,
  "scenes": [
    {
      "name": "Sketchfab_Scene",
      "nodes": [
        0
      ]
    }
  ],
  "textures": [
    {
      "sampler": 0,
      "source": 0
    },
    {
      "sampler": 0,
      "source": 1
    },
    {
      "sampler": 0,
      "source": 2
    }
  ]
}
